# xmcd
#
# Track frame offsets:
#  150
#  9468
#  19760
#  28428
#  38270
#  48181
#  62061
#  69799
#  79065
#  91017
#  103050
#  114223
#  123845
#  133726
#  143565
#  155058
#  166274
#  183703
#  195443
#  206780
#  216368
#  227318
#  236384
#  246228
#  259326
#  268015
#  279003
#  290088
#  301366
#  312388
#  322447
#  334278
#
# Disc length: 4580 seconds
#
# Revision: 0
# Processed by: cddbd v1.5.2PL0 Copyright (c) Steve Scherf et al.
# Submitted via: AltoMP3_Maker 3.0
#
DISCID=c911e220
DTITLE=Various Artist - High on the Hog, Vol. 5 (Honky-Tonk and Hillbilly Bop)
DYEAR=1900
DGENRE=
TTITLE0=Dewey Long - One More Time
TTITLE1=Hoot Roberts - Hey Sheriff
TTITLE2=Ken Adams - Tow the Mark
TTITLE3=Norman Wood - Black Lake Boogie
TTITLE4=Curly Howard - Little Ole Heart
TTITLE5=Mack McCray - Shorts Crazy
TTITLE6=Jack Cardwell - Big Jim Folsom
TTITLE7=Jimmie Widener - Rollin' Tide
TTITLE8=Al Oster - Northland
TTITLE9=Chuck Rogers - Out of Gasoline
TTITLE10=Dewey Groom - Butane Blues
TTITLE11=Sammy Julian - The Man That Plays the Lead Guitar
TTITLE12=Oakie McDonald - Take Your Heart
TTITLE13=Harold Storie - Loved and Lost
TTITLE14=Charlie Brown - $50 Fine!
TTITLE15=Bobby Hodge - Don't Call the Law
TTITLE16=Cleve Warnock - Boy and a Guitar
TTITLE17=Jim Minor - Aggravatin' Waitin'
TTITLE18=Shary Blake - Two Weeks Notice
TTITLE19=Leon Collard - Silver Queen
TTITLE20=The Runabouts - Train
TTITLE21=Jimmie Dawson - Hot Tamale Wagon
TTITLE22=Doug McGinnis - Wrong Number
TTITLE23=Cousin Zeke - Get Your Finger out of It
TTITLE24=Bobby Mc - Lonely World of Hurt
TTITLE25=Everett Cenna - Another in My Life
TTITLE26=Little Leon Payne - Hard Row to Hoe
TTITLE27=Jack Cardwell - Ballad of Big Jim Folsom
TTITLE28=Jimmie Williams - Hey, Hey Little Dreamboat
TTITLE29=Marvin Rainwater - It Wasn't Enough
TTITLE30=Johnny Diamond - Cry Baby Cry
TTITLE31=Jimmie Dawson - If I Can't Have You
EXTD=
EXTT0=
EXTT1=
EXTT2=
EXTT3=
EXTT4=
EXTT5=
EXTT6=
EXTT7=
EXTT8=
EXTT9=
EXTT10=
EXTT11=
EXTT12=
EXTT13=
EXTT14=
EXTT15=
EXTT16=
EXTT17=
EXTT18=
EXTT19=
EXTT20=
EXTT21=
EXTT22=
EXTT23=
EXTT24=
EXTT25=
EXTT26=
EXTT27=
EXTT28=
EXTT29=
EXTT30=
EXTT31=
PLAYORDER=
